# xmcd
#
# Track frame offsets:
#	182
#	13157
#	26150
#	38895
#	51697
#	65620
#	75765
#	86285
#	100522
#	111870
#	125202
#	137890
#
# Disc length: 1972 seconds
#
# Revision: 2
# Processed by: cddbd v1.5.2PL0 Copyright (c) Steve Scherf et al.
# Submitted via: audiograbber 1.83.01
#
DISCID=a007b20c
DTITLE=James Brown and The Fabulous Flames - James Brown and The Famous Flames
DYEAR=1995
DGENRE=Oldies
TTITLE0=Just You And Me Darling
TTITLE1=I Love You, Yes I Do
TTITLE2=I Don't Mind
TTITLE3=Come Over Here
TTITLE4=The Bells
TTITLE5=Love Don't Love Nobody
TTITLE6=Dancin' Little Thing
TTITLE7=Lost Someone
TTITLE8=And I Do Just What I Want
TTITLE9=So Long
TTITLE10=You Don't Have To Go
TTITLE11=Tell Me What Your'e Gonna Do
EXTD=
EXTT0=
EXTT1=
EXTT2=
EXTT3=Come Over Here
EXTT4=
EXTT5=
EXTT6=
EXTT7=
EXTT8=
EXTT9=
EXTT10=
EXTT11=
PLAYORDER=
